<svg xmlns="http://www.w3.org/2000/svg" xml:space="preserve" width="1500" height="1500" data-id="lg_OY0lsM8VOcjq2IGjdU" data-version="1" viewBox="0 0 1500 1500"><path fill="#fff" stroke="transparent" d="M0 0h1500v1500H0z"/><g data-padding="20"><g transform="translate(-351.19 -350.148)scale(1.4407)"><rect width="628.12" height="672.35" x="50.382" y="27.553" fill="none" rx="0" ry="0" transform="translate(399.9 399.89)"/><path d="M567.362 956.438q-12.2-5.81-25.42-21.65-13.22-15.83-22.66-35.15-9.45-19.32-10.9-35.88l25.86-36.02q5.81-2.33 13.36-3.2 7.56-.87 14.82-.87h9.59q-11.62-67.11-16.85-119.26t-8.28-91.67q-3.05-39.51-7.99-68.56 5.52-8.42 19.03-17.14t32.68-14.67q19.17-5.96 40.67-5.96 27.6 0 46.78 11.62l-30.51 313.77 3.78.29 73.5 13.95 27.6-83.96 53.46 6.97q3.78 9.88 6.54 30.5 2.76 20.63 2.76 43.87 0 27.31-5.81 53.32-5.81 26-21.5 42.85t-45.03 16.85q-17.73 0-36.32-7.7t-36.02-19.03q-17.44-11.33-31.67-22.66-11.33 19.46-28.76 33.7-17.44 14.24-42.71 15.69m309.41 121.44q-25.86-4.94-40.82-19.32t-22.22-24.26q-.3-16.56 2.46-27.31t7.41-23.82l58.98 9q-3.78-38.93-10.17-86.86-6.39-47.94-13.65-97.48-7.27-49.53-13.95-94.56t-10.89-79.17q-4.22-34.14-4.22-50.12 1.75-4.06 7.99-16.12 6.25-12.06 18.31-27.75 12.05-15.69 31.08-31.23t46.63-26.87q35.45 8.13 60.58 11.76 25.13 3.64 48.37 1.31 4.07 8.14 3.34 21.65-.72 13.51-4.94 28.61-4.21 15.11-10.89 28.18-6.68 13.08-14.24 20.05-25.27-1.74-39.07-7.99t-21.36-14.82q-7.55-8.57-13.65-16.99l5.81 100.23 75.54-22.37q6.97 10.75 8.13 26.58 1.16 15.84-1.45 32.25-2.62 16.42-6.68 29.49-4.07 13.07-7.56 18.3-18.01.58-35.44-5.95-17.43-6.54-27.31-11.77 2.9 52.3 5.08 106.33 2.18 54.04 3.05 102.27t-.58 83.67q-2.61 16.56-16.41 31.09-13.8 14.52-32.11 23.68-18.3 9.15-35.15 10.31"/></g><path fill="transparent" stroke="transparent" stroke-width="1.488" d="M282.738 250h934.524v1000H282.738z"/></g></svg>